<svg width="13" height="13" viewBox="0 0 13 13" fill="none"
    xmlns="http://www.w3.org/2000/svg">
    <path d="M4.9417 8.84211C5.53605 8.68031 5.97308 8.13677 5.97308 7.49115L5.97308 5.62448C5.97308 4.47167 6.80911 3.51412 7.90793 3.32503C8.09021 2.76367 8.61759 2.35781 9.23975 2.35781C10.013 2.35781 10.6397 2.98459 10.6397 3.75781C10.6397 4.53103 10.013 5.15781 9.23975 5.15781C8.64867 5.15781 8.14313 4.79153 7.93779 4.27353C7.34345 4.43532 6.90641 4.97885 6.90641 5.62448L6.90641 7.49115C6.90641 8.01643 6.73286 8.50117 6.43993 8.89115L7.91941 8.89115C8.11158 8.34739 8.63019 7.95781 9.23975 7.95781C10.013 7.95781 10.6397 8.58462 10.6397 9.35781C10.6397 10.131 10.013 10.7578 9.23975 10.7578C8.63019 10.7578 8.11158 10.3682 7.91941 9.82448L4.96008 9.82448C4.76789 10.3682 4.24932 10.7578 3.63975 10.7578C2.86655 10.7578 2.23975 10.131 2.23975 9.35781C2.23975 8.58462 2.86655 7.95781 3.63975 7.95781C4.23083 7.95781 4.73636 8.32412 4.9417 8.84211Z" fill="black"/>
</svg>
    