<svg width="21" height="21" viewBox="0 0 21 21" fill="none"
    xmlns="http://www.w3.org/2000/svg">
    <path d="M7.875 0.875V2.625H13.125V0.875H14.875V2.625H18.375C18.8583 2.625 19.25 3.01676 19.25 3.5V17.5C19.25 17.9833 18.8583 18.375 18.375 18.375H2.625C2.14175 18.375 1.75 17.9833 1.75 17.5V3.5C1.75 3.01676 2.14175 2.625 2.625 2.625H6.125V0.875H7.875ZM17.5 9.625H3.5V16.625H17.5V9.625ZM6.125 4.375H3.5V7.875H17.5V4.375H14.875V6.125H13.125V4.375H7.875V6.125H6.125V4.375Z" fill="#C4C4C4"/>
</svg>
    