<svg width="12" height="12" viewBox="0 0 12 12" fill="none"
    xmlns="http://www.w3.org/2000/svg">
    <g clip-path="url(#clip0_5132_6771)">
        <path d="M2.414 10.5L2.404 10.51L2.3935 10.5H1.496C1.36441 10.4999 1.23825 10.4475 1.14524 10.3544C1.05224 10.2613 1 10.1351 1 10.0035V1.9965C1.00092 1.86519 1.05345 1.73951 1.14626 1.64661C1.23906 1.55371 1.36469 1.50105 1.496 1.5H10.504C10.778 1.5 11 1.7225 11 1.9965V10.0035C10.9991 10.1348 10.9465 10.2605 10.8537 10.3534C10.7609 10.4463 10.6353 10.499 10.504 10.5H2.414ZM10 7.5V2.5H2V9.5L7 4.5L10 7.5ZM10 8.914L7 5.914L3.414 9.5H10V8.914ZM4 5.5C3.73478 5.5 3.48043 5.39464 3.29289 5.20711C3.10536 5.01957 3 4.76522 3 4.5C3 4.23478 3.10536 3.98043 3.29289 3.79289C3.48043 3.60536 3.73478 3.5 4 3.5C4.26522 3.5 4.51957 3.60536 4.70711 3.79289C4.89464 3.98043 5 4.23478 5 4.5C5 4.76522 4.89464 5.01957 4.70711 5.20711C4.51957 5.39464 4.26522 5.5 4 5.5Z" fill="black"/>
    </g>
    <defs>
        <clipPath id="clip0_5132_6771">
            <rect width="12" height="12" fill="white"/>
        </clipPath>
    </defs>
</svg>
    