<svg width="10" height="10" viewBox="0 0 10 10" fill="none"
    xmlns="http://www.w3.org/2000/svg">
    <g clip-path="url(#clip0_5132_6820)">
        <path d="M5.00004 9.16536C2.69885 9.16536 0.833374 7.29986 0.833374 4.9987C0.833374 2.69751 2.69885 0.832031 5.00004 0.832031C7.30121 0.832031 9.16671 2.69751 9.16671 4.9987C9.16671 7.29986 7.30121 9.16536 5.00004 9.16536ZM5.00004 8.33203C6.841 8.33203 8.33337 6.83966 8.33337 4.9987C8.33337 3.15775 6.841 1.66536 5.00004 1.66536C3.15909 1.66536 1.66671 3.15775 1.66671 4.9987C1.66671 6.83966 3.15909 8.33203 5.00004 8.33203ZM5.00004 7.08203C3.84945 7.08203 2.91671 6.14928 2.91671 4.9987C2.91671 3.84811 3.84945 2.91536 5.00004 2.91536C6.15062 2.91536 7.08337 3.84811 7.08337 4.9987C7.08337 6.14928 6.15062 7.08203 5.00004 7.08203Z" fill="black"/>
    </g>
    <defs>
        <clipPath id="clip0_5132_6820">
            <rect width="10" height="10" fill="white"/>
        </clipPath>
    </defs>
</svg>
    