<svg width="19" height="19" viewBox="0 0 19 19" fill="none"
    xmlns="http://www.w3.org/2000/svg">
    <path d="M13.4583 4.7487H17.4166V6.33203H15.8333V16.6237C15.8333 17.0609 15.4788 17.4154 15.0416 17.4154H3.95825C3.52103 17.4154 3.16659 17.0609 3.16659 16.6237V6.33203H1.58325V4.7487H5.54158V2.3737C5.54158 1.93648 5.89603 1.58203 6.33325 1.58203H12.6666C13.1038 1.58203 13.4583 1.93648 13.4583 2.3737V4.7487ZM14.2499 6.33203H4.74992V15.832H14.2499V6.33203ZM10.6195 11.0818L12.019 12.4813L10.8994 13.6009L9.49992 12.2014L8.10041 13.6009L6.98085 12.4813L8.38034 11.0818L6.98085 9.68236L8.10041 8.56279L9.49992 9.96222L10.8994 8.56279L12.019 9.68236L10.6195 11.0818ZM7.12492 3.16536V4.7487H11.8749V3.16536H7.12492Z" fill="black"/>
</svg>
    