<svg width="22" height="22" viewBox="0 0 22 22" fill="none"
    xmlns="http://www.w3.org/2000/svg">
    <path d="M10.9999 20.1654C5.93731 20.1654 1.83325 16.0613 1.83325 10.9987C1.83325 5.93609 5.93731 1.83203 10.9999 1.83203C16.0625 1.83203 20.1666 5.93609 20.1666 10.9987C20.1666 16.0613 16.0625 20.1654 10.9999 20.1654ZM10.9999 18.332C15.05 18.332 18.3333 15.0488 18.3333 10.9987C18.3333 6.94861 15.05 3.66536 10.9999 3.66536C6.94983 3.66536 3.66659 6.94861 3.66659 10.9987C3.66659 15.0488 6.94983 18.332 10.9999 18.332ZM11.9166 10.9987H15.5833V12.832H10.0833V6.41536H11.9166V10.9987Z" fill="#C4C4C4"/>
</svg>
    