<svg width="13" height="13" viewBox="0 0 13 13" fill="none"
    xmlns="http://www.w3.org/2000/svg">
    <path d="M3.37488 2.75V0.875C3.37488 0.529825 3.6547 0.25 3.99988 0.25H11.4999C11.8451 0.25 12.1249 0.529825 12.1249 0.875V9.625C12.1249 9.97019 11.8451 10.25 11.4999 10.25H9.62488V12.1244C9.62488 12.4699 9.34369 12.75 8.99562 12.75H1.50416C1.15662 12.75 0.875 12.4721 0.875 12.1244L0.876625 3.37554C0.876687 3.03007 1.1579 2.75 1.50589 2.75H3.37488ZM2.12651 4L2.12512 11.5H8.37488V4H2.12651ZM4.62487 2.75H9.62488V9H10.8749V1.5H4.62487V2.75Z" fill="#84818A"/>
</svg>
    