<svg width="24" height="24" viewBox="0 0 24 24" fill="none"
    xmlns="http://www.w3.org/2000/svg">
    <path d="M3.42871 3.42857C3.42871 1.53502 4.96376 0 6.85733 0C8.75091 0 10.286 1.53502 10.286 3.42857C10.286 4.53387 9.76292 5.51702 8.95085 6.144C8.92642 6.16202 8.90214 6.18026 8.87804 6.19869C8.31139 6.61274 7.6129 6.85714 6.85733 6.85714C4.96376 6.85714 3.42871 5.32212 3.42871 3.42857ZM6.85733 1.71429C5.91055 1.71429 5.14302 2.48181 5.14302 3.42857C5.14302 4.37534 5.91055 5.14286 6.85733 5.14286C7.80411 5.14286 8.57164 4.37534 8.57164 3.42857C8.57164 2.48181 7.80411 1.71429 6.85733 1.71429Z" fill="#212121"/>
    <path d="M15.0499 6.144C14.2379 5.51702 13.7148 4.53387 13.7148 3.42857C13.7148 1.53502 15.2499 0 17.1435 0C19.0371 0 20.5721 1.53502 20.5721 3.42857C20.5721 5.32212 19.0371 6.85714 17.1435 6.85714C16.388 6.85714 15.6894 6.61275 15.1228 6.1987C15.0987 6.18026 15.0744 6.16202 15.0499 6.144ZM17.1435 1.71429C16.1967 1.71429 15.4292 2.48181 15.4292 3.42857C15.4292 4.37534 16.1967 5.14286 17.1435 5.14286C18.0903 5.14286 18.8578 4.37534 18.8578 3.42857C18.8578 2.48181 18.0903 1.71429 17.1435 1.71429Z" fill="#212121"/>
    <path d="M2.57143 8.57129H7.14989C6.96036 9.10748 6.85724 9.68448 6.85724 10.2856H2.57143C2.09809 10.2856 1.71431 10.6694 1.71431 11.1427C1.71431 12.5431 2.27065 13.5817 3.15107 14.2883C3.55589 14.6133 4.0407 14.8764 4.58873 15.0677C4.19067 15.4919 3.87796 15.9971 3.678 16.5557C3.0952 16.3187 2.556 16.0089 2.078 15.6252C0.786817 14.5889 0 13.056 0 11.1427C0 9.72262 1.15126 8.57129 2.57143 8.57129Z" fill="#212121"/>
    <path d="M9.02997 8.57171C8.73825 9.076 8.57129 9.6615 8.57129 10.286C8.57129 11.7321 9.46654 12.969 10.7331 13.4729C11.125 13.6288 11.5524 13.7146 11.9999 13.7146C12.4474 13.7146 12.8749 13.6288 13.2668 13.4729C14.5333 12.969 15.4285 11.7321 15.4285 10.286C15.4285 9.6615 15.2616 9.076 14.9698 8.57171C14.377 7.54691 13.269 6.85742 11.9999 6.85742C10.7308 6.85742 9.6228 7.54691 9.02997 8.57171ZM11.6153 8.61503C11.7389 8.58667 11.8677 8.57171 11.9999 8.57171C12.1322 8.57171 12.2609 8.58667 12.3845 8.61503C13.1461 8.78961 13.7142 9.47147 13.7142 10.286C13.7142 10.4182 13.6993 10.547 13.6709 10.6706C13.4963 11.4322 12.8144 12.0003 11.9999 12.0003C11.1854 12.0003 10.5035 11.4322 10.3289 10.6706C10.3006 10.547 10.2856 10.4182 10.2856 10.286C10.2856 9.47147 10.8537 8.78961 11.6153 8.61503Z" fill="#212121"/>
    <path d="M20.8484 14.2883C20.4437 14.6133 19.9589 14.8764 19.4108 15.0677C19.8089 15.4919 20.1215 15.9971 20.3214 16.5557C20.9043 16.3187 21.4434 16.0089 21.9216 15.6252C23.2126 14.5889 23.9995 13.056 23.9995 11.1427C23.9995 9.72255 22.8482 8.57129 21.428 8.57129H16.8496C17.039 9.10748 17.1422 9.68448 17.1422 10.2856H21.428C21.9013 10.2856 22.2852 10.6693 22.2852 11.1427C22.2852 12.5431 21.7289 13.5817 20.8484 14.2883Z" fill="#212121"/>
    <path d="M16.2866 15.4287C17.3596 15.4287 18.2789 16.0858 18.6645 17.0196C18.7891 17.3218 18.858 17.653 18.858 18.0001C18.858 19.9135 18.0712 21.4464 16.7801 22.4827C15.5093 23.5027 13.8061 24.0001 12.0008 24.0001C10.1955 24.0001 8.49232 23.5027 7.22156 22.4827C5.93037 21.4464 5.14355 19.9135 5.14355 18.0001C5.14355 17.653 5.21238 17.3218 5.33713 17.0196C5.72261 16.0858 6.64207 15.4287 7.71499 15.4287H16.2866ZM16.2866 17.143H7.71499C7.24165 17.143 6.85786 17.5268 6.85786 18.0001C6.85786 19.4005 7.41421 20.4391 8.29463 21.1457C9.19546 21.8688 10.4923 22.2859 12.0008 22.2859C13.5093 22.2859 14.8061 21.8688 15.707 21.1457C16.5874 20.4391 17.1437 19.4005 17.1437 18.0001C17.1437 17.5268 16.7599 17.143 16.2866 17.143Z" fill="#212121"/>
</svg>
