<svg width="24" height="27" viewBox="0 0 24 27" fill="none"
    xmlns="http://www.w3.org/2000/svg">
    <path d="M23.3855 19.118C22.6282 17.8145 21.7255 15.3479 21.7255 11V10.1129C21.7255 4.71412 17.3959 0.289795 12.0741 0.25025C12.0492 0.250125 12.0246 0.25 11.9998 0.25C9.41732 0.253452 6.942 1.2826 5.11832 3.11107C3.29464 4.93953 2.27197 7.41754 2.27529 10V11C2.27529 15.3478 1.37209 17.8141 0.614277 19.1177C0.459117 19.3834 0.376757 19.6853 0.375503 19.993C0.374248 20.3007 0.454144 20.6032 0.607132 20.8702C0.76012 21.1371 0.980792 21.359 1.2469 21.5135C1.513 21.668 1.81513 21.7496 2.12282 21.75H7.24989V22C7.24989 23.2598 7.75034 24.468 8.64114 25.3588C9.53193 26.2496 10.7401 26.75 11.9999 26.75C13.2597 26.75 14.4679 26.2496 15.3586 25.3588C16.2494 24.468 16.7499 23.2598 16.7499 22V21.75H21.877C22.1846 21.7496 22.4867 21.668 22.7528 21.5136C23.0189 21.3592 23.2396 21.1373 23.3926 20.8704C23.5456 20.6035 23.6255 20.3009 23.6242 19.9933C23.623 19.6856 23.5406 19.3837 23.3855 19.118ZM15.2499 22C15.2499 22.862 14.9075 23.6886 14.298 24.2981C13.6885 24.9076 12.8618 25.25 11.9999 25.25C11.1379 25.25 10.3113 24.9076 9.7018 24.2981C9.0923 23.6886 8.74989 22.862 8.74989 22V21.75H15.2499V22ZM22.0897 20.1267C22.0689 20.1647 22.038 20.1963 22.0005 20.218C21.963 20.2397 21.9203 20.2508 21.877 20.25H2.12282C2.07946 20.2508 2.03672 20.2397 1.9992 20.218C1.96167 20.1963 1.93081 20.1647 1.90993 20.1267C1.8868 20.0881 1.87469 20.0439 1.87491 19.9989C1.87512 19.9539 1.88766 19.9098 1.91115 19.8715C2.76149 18.4086 3.77528 15.6819 3.77528 11V10C3.77198 7.81531 4.63667 5.71879 6.17912 4.17162C7.72157 2.62445 9.81545 1.75337 12.0001 1.75C12.0209 1.75 12.0421 1.75013 12.0629 1.75025C16.5637 1.7837 20.2255 5.53516 20.2255 10.1129V11C20.2255 15.6819 21.2387 18.4086 22.0886 19.8716C22.1121 19.91 22.1246 19.954 22.1248 19.999C22.125 20.044 22.1129 20.0881 22.0897 20.1267Z" fill="black"/>
</svg>
