<svg width="20" height="23" viewBox="0 0 20 23" fill="none"
    xmlns="http://www.w3.org/2000/svg">
    <g clip-path="url(#clip0_99_1394)">
        <path d="M16.1349 10.5725H7.95501V9.07053H16.1349V10.5725ZM16.1349 14.3976H7.95501V12.8956H16.1349V14.3976ZM16.1349 18.2226H7.95501V16.7206H16.1349V18.2226ZM20 22.9988H0V1.43049H5.91003V2.93249H1.606V21.4969H18.394V2.93247H14.0899V1.43053H19.9999L20 22.9988ZM5.10706 0.469238H14.8929V3.13275C14.8809 4.59783 13.6154 5.78275 12.0506 5.79626H7.95508C6.38853 5.78504 5.12153 4.60148 5.10711 3.13803V3.13675L5.10706 0.469238ZM13.2869 1.97122H6.71307V3.13275C6.72088 3.77269 7.27471 4.28924 7.9588 4.29428H12.045C12.7292 4.28697 13.2815 3.76901 13.2869 3.12923V3.12874V1.97122ZM5.91003 10.5725H3.86509V9.07053H5.91005L5.91003 10.5725ZM5.91003 14.3976H3.86509V12.8956H5.91005L5.91003 14.3976ZM5.91003 18.2226H3.86509V16.7206H5.91005L5.91003 18.2226Z" fill="black"/>
    </g>
    <defs>
        <clipPath id="clip0_99_1394">
            <rect width="20" height="23" fill="white"/>
        </clipPath>
    </defs>
</svg>
