<svg width="25" height="27" viewBox="0 0 25 27" fill="none"
    xmlns="http://www.w3.org/2000/svg">
    <path d="M11.2903 10.8389C11.2903 11.5167 11.8319 12.0662 12.5 12.0662C13.1681 12.0662 13.7097 11.5167 13.7097 10.8389H11.2903ZM13.7097 1.22723C13.7097 0.549457 13.1681 0 12.5 0C11.8319 0 11.2903 0.549457 11.2903 1.22723H13.7097ZM8.16267 5.58238C8.77068 5.30151 9.03911 4.57374 8.76224 3.9569C8.48539 3.34006 7.76805 3.06773 7.16004 3.34862L8.16267 5.58238ZM1.20982 14.5795L0 14.5732L0.000242261 14.5938L1.20982 14.5795ZM12.5 25.7719L12.5139 24.5447C12.5047 24.5447 12.4953 24.5447 12.4861 24.5447L12.5 25.7719ZM23.7902 14.5795L25 14.5938L24.9998 14.5732L23.7902 14.5795ZM17.8399 3.34862C17.2319 3.06773 16.5146 3.34006 16.2377 3.9569C15.9609 4.57374 16.2293 5.30151 16.8374 5.58238L17.8399 3.34862ZM13.7097 10.8389V1.22723H11.2903V10.8389H13.7097ZM7.16004 3.34862C2.82017 5.35354 0.0249835 9.73526 0 14.5732L2.41947 14.5859C2.43952 10.7054 4.68149 7.19061 8.16267 5.58238L7.16004 3.34862ZM0.000242261 14.5938C0.0797574 21.525 5.68199 27.0787 12.5139 26.9992L12.4861 24.5447C6.99014 24.6088 2.48337 20.141 2.4194 14.5653L0.000242261 14.5938ZM12.4861 26.9992C19.318 27.0787 24.9206 21.525 25 14.5938L22.5807 14.5653C22.5166 20.141 18.0099 24.6088 12.5139 24.5447L12.4861 26.9992ZM24.9998 14.5732C24.9748 9.73526 22.1799 5.35354 17.8399 3.34862L16.8374 5.58238C20.3184 7.19061 22.5605 10.7054 22.5805 14.5859L24.9998 14.5732Z" fill="#6D29CE"/>
</svg>
