<svg width="23" height="23" viewBox="0 0 23 23" fill="none"
    xmlns="http://www.w3.org/2000/svg">
    <g clip-path="url(#clip0_99_1396)">
        <path d="M21.5625 7.67625L20.125 3.36375C20.0749 3.21498 19.9776 3.08667 19.8478 2.99842C19.718 2.91017 19.5629 2.86682 19.4062 2.875H3.5937C3.43697 2.86682 3.28186 2.91017 3.15208 2.99842C3.02229 3.08667 2.92496 3.21498 2.87495 3.36375L1.43745 7.67625C1.4271 7.75257 1.4271 7.82993 1.43745 7.90625V12.2188C1.43745 12.4094 1.51318 12.5922 1.64797 12.727C1.78276 12.8618 1.96558 12.9375 2.1562 12.9375H2.87495V20.125H4.31245V12.9375H8.62495V20.125H20.125V12.9375H20.8437C21.0343 12.9375 21.2171 12.8618 21.3519 12.727C21.4867 12.5922 21.5625 12.4094 21.5625 12.2188V7.90625C21.5728 7.82993 21.5728 7.75257 21.5625 7.67625ZM18.6875 18.6875H10.0625V12.9375H18.6875V18.6875ZM20.125 11.5H17.25V8.625H15.8125V11.5H12.2187V8.625H10.7812V11.5H7.18745V8.625H5.74995V11.5H2.87495V8.02125L4.1112 4.3125H18.8887L20.125 8.02125V11.5Z" fill="black"/>
    </g>
    <defs>
        <clipPath id="clip0_99_1396">
            <rect width="23" height="23" fill="white"/>
        </clipPath>
    </defs>
</svg>
