<svg width="28" height="28" viewBox="0 0 28 28" fill="none"
    xmlns="http://www.w3.org/2000/svg">
    <g clip-path="url(#clip0_824_546)">
        <path d="M27.4339 14.3758H25.4249V9.20892C25.4249 9.18521 25.4226 9.16211 25.4214 9.13873V5.15993C25.4214 4.88936 25.2021 4.67006 24.9315 4.67006H19.7375L15.2471 0.17955C15.1552 0.0877303 15.0306 0.0361328 14.9007 0.0361328C14.7707 0.0361328 14.6462 0.0877303 14.5543 0.179578L11.1684 3.56552L9.57662 1.97371C9.38526 1.78241 9.07513 1.78241 8.88378 1.97371L6.18432 4.67313C6.16655 4.67116 6.14839 4.66998 6.13002 4.66998H0.566523C0.295957 4.66998 0.0766602 4.88928 0.0766602 5.15984V10.3734C0.0766602 10.3894 0.0775352 10.4052 0.0790664 10.4207V26.6339C0.0790664 27.3671 0.675543 27.9635 1.40868 27.9635H24.0952C24.8284 27.9635 25.4249 27.3671 25.4249 26.6339V21.4671H27.4339C27.7044 21.4671 27.9237 21.2478 27.9237 20.9773V14.8656C27.9237 14.5951 27.7044 14.3758 27.4339 14.3758L27.4339 14.3758ZM24.4416 5.64976V7.92667C24.3309 7.8967 24.2152 7.87928 24.0952 7.87928H22.9466L20.7171 5.64979H24.4416L24.4416 5.64976ZM14.9007 1.21877L21.5612 7.87925H20.0743L14.1573 1.96222L14.9007 1.2188L14.9007 1.21877ZM13.4645 2.65503L18.6887 7.87931H15.4822L11.8612 4.2583L13.4645 2.65503ZM9.2302 3.0129L14.0966 7.87925H12.7614L8.56266 3.68055L9.23023 3.01293L9.2302 3.0129ZM11.3757 7.87925H4.36383L7.86976 4.37339L11.3757 7.87925H11.3757ZM2.97821 7.87925H1.40868C1.28657 7.87925 1.16882 7.89719 1.05639 7.92814V5.64976H5.20772L2.97824 7.87925H2.97821ZM24.4452 26.634C24.4452 26.8269 24.2882 26.9839 24.0952 26.9839H1.40871C1.2158 26.9839 1.05882 26.8269 1.05882 26.634V9.20889C1.05882 9.01598 1.21577 8.85898 1.40871 8.85898H24.0953C24.2762 8.85898 24.4237 8.99753 24.4416 9.1737V10.3734C24.4416 10.3927 24.4431 10.4116 24.4452 10.4302V14.3758H19.9927C18.0376 14.3758 16.447 15.9664 16.447 17.9214C16.447 19.8766 18.0376 21.4672 19.9927 21.4672H24.4452L24.4452 26.634ZM26.944 20.4874H19.9927C18.5778 20.4874 17.4267 19.3363 17.4267 17.9214C17.4267 16.5066 18.5778 15.3555 19.9927 15.3555H26.9441V20.4874L26.944 20.4874ZM20.0159 16.2419C19.0899 16.2419 18.3364 16.9953 18.3364 17.9214C18.3364 18.8475 19.0899 19.601 20.016 19.601C20.942 19.601 21.6955 18.8475 21.6955 17.9214C21.6955 16.9953 20.9421 16.2419 20.016 16.2419L20.0159 16.2419ZM20.0159 18.6212C19.6301 18.6212 19.3161 18.3073 19.3161 17.9214C19.3161 17.5356 19.6301 17.2216 20.016 17.2216C20.4018 17.2216 20.7158 17.5356 20.7158 17.9214C20.7158 18.3073 20.4018 18.6212 20.016 18.6212H20.0159Z" fill="black"/>
    </g>
    <defs>
        <clipPath id="clip0_824_546">
            <rect width="28" height="28" fill="white"/>
        </clipPath>
    </defs>
</svg>
