<svg width="43" height="38" viewBox="0 0 43 38" fill="none"
    xmlns="http://www.w3.org/2000/svg">
    <g clip-path="url(#clip0_99_1346)">
        <path d="M35.7585 23.6178C35.7585 23.3603 35.7481 23.1001 35.7275 22.8477C35.7275 22.8451 35.7275 22.8451 35.7275 22.8399C35.6809 22.1775 35.5905 21.5257 35.4587 20.8897C35.4251 20.7162 35.3863 20.5427 35.3424 20.3719C35.1873 19.7332 34.9831 19.1077 34.7402 18.5032C34.6833 18.356 34.6265 18.214 34.5619 18.0721C34.2957 17.4676 33.9907 16.8841 33.6496 16.3296C33.5772 16.2139 33.5048 16.0983 33.4299 15.9852C33.0732 15.4386 32.6804 14.9182 32.2462 14.4293C32.1713 14.3399 32.0937 14.2532 32.0162 14.1665C31.5768 13.6855 31.1039 13.2387 30.6025 12.826C30.5276 12.7603 30.4474 12.6999 30.3673 12.6368C29.8633 12.2347 29.3258 11.8693 28.7675 11.5434C28.6926 11.5014 28.6151 11.4541 28.5401 11.4173C27.9819 11.1019 27.4004 10.8285 26.7956 10.592C26.7232 10.5657 26.6561 10.5368 26.5837 10.5157C25.9841 10.2923 25.3716 10.111 24.7384 9.97694C24.6738 9.96117 24.6092 9.95066 24.5446 9.93752C23.9243 9.81136 23.2859 9.72988 22.6372 9.69572C22.5778 9.68783 22.5209 9.6852 22.4589 9.6852C22.2496 9.67469 22.0428 9.66943 21.8309 9.66943C21.3941 9.66943 20.9677 9.68783 20.5413 9.72988C20.4844 9.73251 20.4275 9.73777 20.3707 9.74565C19.7272 9.81399 19.0966 9.92701 18.484 10.0821C18.4272 10.0978 18.3729 10.1084 18.3161 10.1241C17.6958 10.2897 17.0884 10.4973 16.5018 10.7444C16.4449 10.7681 16.3906 10.7917 16.3338 10.818C15.7419 11.0756 15.1708 11.3726 14.6255 11.709C14.5686 11.7484 14.5117 11.7826 14.4575 11.8168C13.9122 12.1637 13.3927 12.5448 12.9042 12.9653C12.8448 13.0153 12.7879 13.0652 12.7311 13.1151C12.2426 13.5383 11.7877 14.0009 11.3665 14.4924C11.307 14.5581 11.2502 14.6264 11.1959 14.6974C10.7798 15.1941 10.3973 15.7198 10.051 16.2744C9.99672 16.3585 9.94503 16.4478 9.89076 16.5372C9.55995 17.097 9.26532 17.6831 9.01205 18.2876C8.96553 18.4007 8.92159 18.5084 8.88024 18.6188C8.64247 19.2233 8.44347 19.8515 8.29357 20.4954C8.26256 20.6268 8.23413 20.7609 8.2057 20.8975C8.07389 21.5336 7.98085 22.1854 7.93692 22.8477C7.93692 22.8504 7.93692 22.8504 7.93692 22.8556C7.91883 23.1106 7.9059 23.3681 7.9059 23.6257C7.90332 23.6993 7.90332 23.7676 7.90332 23.8412C7.90332 31.6657 14.1422 38.0052 21.8309 38.0052C29.5248 38.0052 35.7636 31.6657 35.7636 23.8412C35.7611 23.7624 35.7611 23.6914 35.7585 23.6178ZM21.8309 32.9877C20.1588 32.9877 18.7993 31.6079 18.7993 29.9047C18.7993 28.2016 20.1588 26.8217 21.8309 26.8217C23.5056 26.8217 24.8624 28.2016 24.8624 29.9047C24.8624 31.6079 23.5056 32.9877 21.8309 32.9877Z" fill="#6D29CE"/>
        <path d="M2.04688 22.8477H40.9531C40.9531 11.9218 32.2435 3.06445 21.5 3.06445C10.7565 3.06445 2.04688 11.9218 2.04688 22.8477Z" fill="#8557CE"/>
        <path d="M22.2784 20.7373C22.3714 21.2682 22.0226 21.7729 21.5005 21.8649C20.981 21.9595 20.4822 21.6047 20.3918 21.0738L17.1224 2.22094C17.0294 1.69265 17.3783 1.18539 17.9004 1.09077C18.4224 0.998779 18.9186 1.35097 19.0117 1.88189L22.2784 20.7373Z" fill="#D3ADF7"/>
        <path d="M21.852 20.5352C22.1157 21.0004 21.9606 21.597 21.5006 21.8678C21.0431 22.1358 20.4564 21.9781 20.1928 21.5103L10.7777 4.92834C10.5141 4.46313 10.6691 3.86651 11.1292 3.59842C11.5866 3.32771 12.1733 3.48803 12.4395 3.95587L21.852 20.5352Z" fill="#D3ADF7"/>
        <path d="M21.3813 20.4933C21.7871 20.8402 21.8388 21.4552 21.5002 21.8679C21.1616 22.2805 20.5569 22.3331 20.1511 21.9888L5.72992 9.68308C5.32416 9.33614 5.27247 8.72112 5.61103 8.30848C5.94959 7.89583 6.55694 7.84327 6.96011 8.18757L21.3813 20.4933Z" fill="#D3ADF7"/>
        <path d="M20.9293 20.6166C21.4255 20.8006 21.684 21.3604 21.5005 21.865C21.3196 22.3697 20.7691 22.6299 20.2729 22.4459L2.57976 15.9014C2.08354 15.7174 1.8251 15.1576 2.00601 14.653C2.18692 14.1483 2.73741 13.8855 3.23362 14.0695L20.9293 20.6166Z" fill="#D3ADF7"/>
        <path d="M20.5414 20.8901C21.0712 20.8901 21.5002 21.3264 21.5002 21.8652C21.5002 22.4014 21.0712 22.8403 20.5414 22.8403H1.71371C1.1839 22.8403 0.754883 22.404 0.754883 21.8652C0.754883 21.3264 1.1839 20.8901 1.71371 20.8901H20.5414Z" fill="#D3ADF7"/>
        <path d="M22.4563 22.8403C21.9264 22.8403 21.4974 22.404 21.5 21.8652C21.5 21.3264 21.929 20.8901 22.4588 20.8901H41.2865C41.8163 20.8901 42.2454 21.3264 42.2454 21.8652C42.2454 22.404 41.8163 22.8403 41.2865 22.8403H22.4563Z" fill="#D3ADF7"/>
        <path d="M22.728 22.4483C22.2292 22.6323 21.6788 22.3721 21.5004 21.8648C21.3195 21.3602 21.5754 20.8004 22.0742 20.6164L39.7647 14.0693C40.2609 13.8853 40.814 14.1455 40.9949 14.6528C41.1758 15.1574 40.92 15.7172 40.4212 15.9012L22.728 22.4483Z" fill="#D3ADF7"/>
        <path d="M22.8489 21.9858C22.4431 22.3301 21.8384 22.2775 21.4998 21.8649C21.1586 21.4522 21.2129 20.8372 21.6187 20.4929L36.0399 8.18719C36.4456 7.84026 37.0504 7.89545 37.3915 8.3081C37.7327 8.72074 37.6784 9.33576 37.2727 9.68007L22.8489 21.9858Z" fill="#D3ADF7"/>
        <path d="M22.8081 21.5103C22.5419 21.9755 21.9578 22.1358 21.4978 21.8651C21.0403 21.597 20.8827 21.0004 21.1463 20.5326L30.5588 3.95324C30.8224 3.4854 31.4091 3.3277 31.8691 3.59579C32.3266 3.86388 32.4842 4.4605 32.2206 4.92834L22.8081 21.5103Z" fill="#D3ADF7"/>
        <path d="M22.6115 21.0766C22.5185 21.6075 22.0223 21.9597 21.5002 21.8677C20.9807 21.7731 20.6318 21.2684 20.7223 20.7402L23.9916 1.88208C24.0821 1.35116 24.5809 0.99634 25.1029 1.09096C25.625 1.18558 25.9713 1.69021 25.8808 2.22113L22.6115 21.0766Z" fill="#D3ADF7"/>
        <path d="M41.9272 18.2036C41.8342 17.6726 41.3379 17.3178 40.8159 17.4124L26.6867 19.9461L39.1127 12.6499C39.5702 12.3792 39.7278 11.7826 39.4616 11.3174C39.198 10.8522 38.6114 10.6919 38.1539 10.9599L25.7279 18.2587L34.9518 7.08057C35.2903 6.66793 35.2387 6.05291 34.8329 5.70597C34.4271 5.35904 33.8224 5.41423 33.4812 5.82687L24.2599 17.005L29.1678 3.29319C29.3487 2.78856 29.0928 2.22873 28.594 2.04212C28.0978 1.85814 27.5448 2.11834 27.3664 2.6256L22.4586 16.3401V1.74512C22.4586 1.20632 22.0296 0.77002 21.4997 0.77002C20.9699 0.77002 20.5409 1.20632 20.5409 1.74512V16.3375L15.6331 2.6256C15.4521 2.12097 14.9017 1.86077 14.4054 2.04212C13.9092 2.2261 13.6508 2.78593 13.8317 3.29056L18.7396 17.005L9.51567 5.82687C9.17711 5.41423 8.57235 5.36166 8.16401 5.70597C7.75825 6.05028 7.70656 6.6653 8.04513 7.07795L17.269 18.2561L4.84558 10.9626C4.38814 10.6919 3.80147 10.8522 3.53527 11.32C3.26907 11.7852 3.42672 12.3819 3.88675 12.6526L16.3128 19.9487L2.18102 17.4124C1.65896 17.3204 1.16275 17.6726 1.06971 18.2036C0.976668 18.7345 1.32557 19.2391 1.84763 19.3337L20.391 22.6559C20.9131 22.7505 21.4093 22.3957 21.4997 21.8648C21.5902 22.3931 22.089 22.7479 22.6085 22.6559L41.1493 19.3311C41.6713 19.2391 42.0202 18.7318 41.9272 18.2036Z" fill="#EFDBFF"/>
        <path d="M41.5346 20.1381C41.532 20.1039 41.5269 20.0697 41.5191 20.0329C42.0825 19.8437 42.5193 19.3653 42.6563 18.7608C42.7105 18.5322 42.7131 18.3009 42.6744 18.067C42.6563 17.9539 42.6201 17.8383 42.5787 17.7279C42.3203 17.0656 41.6793 16.6214 40.979 16.6214C40.9066 16.6214 40.8342 16.624 40.767 16.6319C40.7645 16.6214 40.7593 16.6056 40.7515 16.5925C41.5941 16.235 42.0179 15.2626 41.7026 14.3847C41.4571 13.6987 40.8084 13.2361 40.0873 13.2361C39.8857 13.2361 39.6893 13.2703 39.5007 13.3413L39.4335 13.3675C39.4335 13.3649 39.4309 13.3597 39.4309 13.357C39.4541 13.3465 39.4774 13.3308 39.4981 13.3176C39.9865 13.0285 40.3044 12.5081 40.3432 11.922C40.3458 11.8826 40.3458 11.8405 40.3458 11.7985C40.3458 11.7406 40.3458 11.6723 40.3354 11.5856C40.3096 11.3543 40.2321 11.1335 40.1183 10.9311C40.0615 10.826 39.9943 10.7314 39.9142 10.642C39.5911 10.2688 39.1233 10.0559 38.6297 10.0559C38.3273 10.0559 38.0275 10.1374 37.7665 10.2898C37.7407 10.3056 37.7122 10.3213 37.6864 10.3397L37.6295 10.3739L37.7587 10.2662C38.4824 9.64587 38.578 8.54198 37.9707 7.80606C37.6399 7.40918 37.1643 7.18052 36.6552 7.18052C36.2494 7.18052 35.8592 7.32245 35.5516 7.58791L35.4302 7.69304L35.4793 7.63259C35.4948 7.61682 35.5129 7.59842 35.5284 7.5774C36.0556 6.94135 36.0659 6.0083 35.5594 5.36174C35.4922 5.26975 35.4069 5.18564 35.3216 5.10679C35.0115 4.84396 34.6161 4.6994 34.2155 4.6994C33.7038 4.6994 33.223 4.92807 32.8922 5.32757C32.8741 5.35122 32.8535 5.37751 32.8354 5.40379L32.7966 5.45373L32.8767 5.30654C33.3497 4.47074 33.0706 3.40365 32.2513 2.92004C31.9903 2.76497 31.6905 2.68613 31.3907 2.68613C30.7807 2.68613 30.207 3.02255 29.9046 3.56135L29.8219 3.70328L29.8478 3.62969C29.8633 3.6034 29.8736 3.57449 29.8814 3.54821C30.1165 2.89639 29.9408 2.16046 29.442 1.68211C29.2714 1.51653 29.075 1.39037 28.8502 1.30889C28.6822 1.24844 28.5116 1.2169 28.3204 1.20902H28.2635C27.5398 1.20902 26.8912 1.6716 26.6456 2.35759C26.6353 2.38913 26.6275 2.41804 26.6198 2.44958L26.5965 2.5074L26.6275 2.34445C26.7904 1.39563 26.1649 0.491493 25.2319 0.320653C25.1337 0.304883 25.0355 0.29437 24.9321 0.29437C24.0974 0.29437 23.3866 0.904136 23.2419 1.73994L23.2161 1.91078V1.85295C23.2187 1.81879 23.2187 1.78462 23.2187 1.74782C23.2187 0.919906 22.6397 0.197123 21.8437 0.0315396L21.792 0.026283L21.7688 0.0236547C21.6706 0.00788491 21.5827 0 21.5 0C21.3837 0 21.2648 0.0105132 21.1511 0.0341679C20.3551 0.199751 19.7788 0.919906 19.7788 1.75045C19.7788 1.78462 19.7788 1.8109 19.7813 1.84244V1.91603L19.7503 1.75045C19.6056 0.914649 18.8975 0.304883 18.0601 0.304883C17.9619 0.304883 17.8637 0.315396 17.7655 0.331166C16.8325 0.502006 16.2071 1.40614 16.3699 2.35496L16.4009 2.52054L16.3776 2.46009C16.3699 2.42592 16.3621 2.39964 16.3518 2.3681C16.1063 1.67949 15.4524 1.2169 14.7339 1.2169C14.5323 1.2169 14.3359 1.25107 14.1473 1.32204C13.253 1.6532 12.7904 2.65984 13.1161 3.56923C13.1264 3.60077 13.1393 3.62969 13.1548 3.6586L13.1781 3.71905L13.0954 3.57186C12.7878 3.03306 12.2193 2.69664 11.6093 2.69664C11.3069 2.69664 11.0097 2.77812 10.7487 2.93056C9.92944 3.41154 9.65032 4.48126 10.1207 5.31706L10.2086 5.46424L10.162 5.40905C10.1465 5.38539 10.1284 5.35911 10.1078 5.33545C9.77696 4.93332 9.29625 4.70729 8.78453 4.70729C8.50024 4.70729 8.21595 4.78088 7.96526 4.92018C7.86188 4.978 7.76367 5.04371 7.67839 5.1173C7.50006 5.27237 7.35533 5.45373 7.25454 5.66399C6.93924 6.28953 7.02452 7.04385 7.46646 7.58265C7.48972 7.60894 7.51298 7.63259 7.53107 7.65099L7.57759 7.70618L7.44837 7.59842C7.14082 7.33296 6.74799 7.19104 6.34481 7.19104C5.83826 7.19104 5.35497 7.4197 5.02933 7.81132C4.7347 8.16876 4.59256 8.62083 4.63391 9.08604C4.67268 9.54862 4.88719 9.97178 5.24125 10.2688L5.36531 10.3818L5.31103 10.3503C5.28519 10.3266 5.25676 10.3108 5.22833 10.2924C4.9673 10.1374 4.67009 10.0585 4.36771 10.0585C3.75261 10.0585 3.18404 10.3949 2.87907 10.9364C2.82221 11.0362 2.77311 11.144 2.73434 11.257C2.4759 12.0429 2.80154 12.9155 3.50709 13.3255C3.53035 13.336 3.54844 13.3491 3.56653 13.3597C3.56653 13.3623 3.56395 13.3675 3.56395 13.3702L3.49159 13.3439C3.30551 13.2756 3.10392 13.2388 2.90492 13.2388C2.18902 13.2388 1.54033 13.7013 1.29481 14.3873C1.13716 14.8236 1.16042 15.2967 1.35425 15.7225C1.53516 16.1194 1.85046 16.4269 2.24588 16.5925C2.2433 16.6082 2.23813 16.624 2.23554 16.6345C2.16835 16.6266 2.09598 16.624 2.02362 16.624C1.43695 16.624 0.896802 16.921 0.578916 17.4256C0.454862 17.6175 0.366991 17.8383 0.328225 18.0696C0.286873 18.3009 0.294627 18.5348 0.346316 18.7635C0.478122 19.368 0.914894 19.8463 1.48347 20.0356C1.47572 20.0697 1.47313 20.1039 1.46796 20.1407C0.635773 20.2616 0 20.9896 0 21.8648C0 22.677 0.550487 23.363 1.28964 23.5575V23.6179H18.5253V24.0621C18.5253 24.8664 19.174 25.5261 19.9648 25.5261C20.7608 25.5261 21.4044 24.8664 21.4044 24.0621V23.6179H21.5155V24.0621C21.5155 24.8664 22.159 25.5261 22.9525 25.5261C23.7485 25.5261 24.392 24.8664 24.392 24.0621V23.6179H41.7129V23.5575C42.4521 23.3656 43.0026 22.6796 43.0026 21.8648C43 20.9896 42.3642 20.2616 41.5346 20.1381ZM41.2839 22.84H40.9531C40.9531 22.8426 40.9531 22.8426 40.9531 22.8478H23.6348V24.0621C23.6348 24.4432 23.3324 24.756 22.9525 24.756C22.5777 24.756 22.2753 24.4432 22.2753 24.0621V22.8478H20.6497V24.0621C20.6497 24.4432 20.3473 24.756 19.9674 24.756C19.5927 24.756 19.2851 24.4432 19.2851 24.0621V22.8478H2.04688C2.04688 22.8452 2.04688 22.84 2.04688 22.84H1.71607C1.71349 22.84 1.71349 22.84 1.71349 22.84C1.18626 22.84 0.757242 22.4037 0.757242 21.8648C0.757242 21.326 1.18626 20.8897 1.71607 20.8897H2.13992C2.16577 20.6401 2.19419 20.393 2.22779 20.1486C2.26139 19.9068 2.30016 19.6597 2.34151 19.4205H2.33892L2.28465 19.41L1.90474 19.3417H1.88406C1.87631 19.3417 1.86597 19.3417 1.85305 19.3391C1.82979 19.3364 1.80653 19.3312 1.78844 19.3233C1.72124 19.3075 1.65921 19.2839 1.59977 19.2549C1.58168 19.2471 1.561 19.2365 1.54291 19.2234C1.48606 19.1919 1.43178 19.1551 1.38268 19.1078C1.36459 19.092 1.34908 19.0762 1.33357 19.0604C1.32582 19.0578 1.32324 19.0499 1.32324 19.0447C1.29739 19.021 1.27672 18.9974 1.25862 18.9711C1.23278 18.9369 1.20435 18.9028 1.18626 18.8633C1.16042 18.8213 1.13974 18.774 1.12165 18.724C1.11131 18.6977 1.09839 18.6662 1.09064 18.632C1.08805 18.6215 1.08288 18.6058 1.0803 18.59C1.07771 18.5742 1.07254 18.5637 1.07254 18.5479C1.06996 18.5216 1.06479 18.4901 1.06221 18.4638C1.05445 18.3797 1.05962 18.2904 1.07254 18.2063C1.08288 18.1327 1.10614 18.0643 1.13199 17.9986C1.13974 17.975 1.15008 17.9513 1.163 17.9303C1.17851 17.8987 1.1966 17.8725 1.2121 17.8462C1.25862 17.7726 1.31548 17.7069 1.37492 17.6543C1.40077 17.628 1.4292 17.6044 1.45763 17.586C1.49639 17.5597 1.53258 17.5308 1.57393 17.5124C1.60494 17.4966 1.63078 17.4808 1.66438 17.4703C1.70573 17.4519 1.75225 17.4388 1.79619 17.4283C1.8272 17.4204 1.85563 17.4125 1.88665 17.4099C1.928 17.4072 1.96935 17.402 2.01587 17.402C2.07273 17.402 2.127 17.4046 2.18644 17.4178C2.19419 17.4178 2.20195 17.4204 2.2097 17.4204C2.21229 17.423 2.21745 17.4283 2.22521 17.4283L2.76019 17.5255H2.76277V17.5229C2.82738 17.289 2.89458 17.0577 2.96694 16.8264C3.03931 16.5951 3.11426 16.3664 3.19437 16.1404H3.19179L2.57669 15.9091C2.08048 15.7251 1.82203 15.1653 2.00553 14.6607C2.02362 14.6107 2.0443 14.5634 2.07014 14.5214C2.11925 14.4294 2.18127 14.3479 2.25105 14.2875C2.42421 14.1166 2.65939 14.022 2.90233 14.022C3.01346 14.022 3.12201 14.0404 3.23314 14.0798L3.93353 14.3426V14.34C3.94386 14.3216 3.95162 14.3059 3.95937 14.2848C4.15579 13.8722 4.36771 13.4727 4.58739 13.0784L4.58481 13.0758L3.93353 12.6947C3.91802 12.6868 3.89993 12.6789 3.88442 12.671C3.69059 12.558 3.55103 12.3846 3.47608 12.1901C3.40888 12.0192 3.38562 11.8326 3.41922 11.646C3.42697 11.604 3.43731 11.5619 3.45023 11.5225C3.45023 11.5198 3.45282 11.5146 3.45282 11.512C3.47091 11.4515 3.49934 11.3937 3.53294 11.3359C3.57946 11.2596 3.62856 11.1887 3.69317 11.1282C3.78104 11.0362 3.88701 10.9653 4.00331 10.9206C4.04207 10.9022 4.07825 10.8891 4.11961 10.8785C4.19972 10.8549 4.28243 10.8444 4.36513 10.8444C4.53312 10.8444 4.69594 10.8864 4.84583 10.9758C4.86393 10.9863 4.87685 10.9994 4.89235 11.01L5.616 11.4331L5.61858 11.4357C5.75039 11.2439 5.88737 11.0573 6.02434 10.868C6.1639 10.684 6.30863 10.4974 6.45336 10.3161L5.72196 9.69055C5.3162 9.34624 5.26451 8.73122 5.60566 8.31858C5.79433 8.08729 6.06828 7.97164 6.33964 7.97164C6.55674 7.97164 6.77642 8.04523 6.95474 8.2003L7.74041 8.87052H7.743C8.06088 8.54724 8.39945 8.23447 8.74059 7.93485L8.73284 7.92696L8.08156 7.13584C8.07122 7.12533 8.0583 7.11219 8.04796 7.10167C8.0092 7.05436 7.9756 7.00443 7.94975 6.95449C7.94975 6.95449 7.94717 6.95449 7.94975 6.95186C7.84379 6.77051 7.80502 6.56287 7.82828 6.36312C7.82828 6.36049 7.82828 6.36049 7.82828 6.35524C7.83604 6.28953 7.85154 6.22119 7.8748 6.15811C7.88256 6.12395 7.89806 6.09241 7.91357 6.06087C7.91616 6.0451 7.92132 6.03458 7.92908 6.02144C7.93683 6.01093 7.93942 5.99779 7.94717 5.98727C8.00403 5.8874 8.07639 5.79804 8.16685 5.71656C8.21337 5.67713 8.26506 5.64297 8.31416 5.61143C8.31674 5.6088 8.32191 5.6088 8.3245 5.60354C8.3581 5.58514 8.39686 5.56937 8.43563 5.5536C8.45114 5.55097 8.46147 5.54309 8.47698 5.54309C8.51575 5.52732 8.54934 5.51681 8.58811 5.51155C8.6062 5.50367 8.62171 5.50367 8.63722 5.50367C8.68373 5.49315 8.72767 5.4879 8.77419 5.4879H8.78453C8.88791 5.4879 8.98612 5.50367 9.08432 5.53783C9.25231 5.59303 9.40221 5.6929 9.52368 5.83746C9.53402 5.84797 9.54177 5.86374 9.55469 5.87951L10.2447 6.72057L10.2473 6.7232C10.6066 6.46037 10.9787 6.21068 11.3535 5.9715C11.3561 5.9715 11.3561 5.96887 11.3612 5.96887L10.7771 4.93858C10.5109 4.47337 10.666 3.87412 11.126 3.60603C11.2785 3.51667 11.4439 3.47462 11.6042 3.47462C11.9376 3.47462 12.2606 3.65071 12.4389 3.96348L13.0463 5.03583C13.054 5.0332 13.0618 5.02794 13.0695 5.02531C13.2634 4.93332 13.4572 4.84133 13.6485 4.7546C13.85 4.66524 14.0542 4.5785 14.2636 4.49703L14.261 4.4944L13.8552 3.3616C13.8475 3.34583 13.8397 3.33006 13.832 3.31166C13.757 3.09877 13.757 2.88062 13.8242 2.68087C13.8475 2.58888 13.8914 2.49952 13.9483 2.41804C13.9741 2.37599 14.0051 2.33656 14.0387 2.30502C14.1369 2.192 14.2636 2.1079 14.4057 2.05533C14.5168 2.01591 14.6254 1.99751 14.7365 1.99751C14.9329 1.99751 15.1242 2.05796 15.2818 2.17098C15.4421 2.28399 15.5687 2.44432 15.6411 2.64144C15.6436 2.65721 15.6488 2.67298 15.6514 2.68875V2.69138L16.0675 3.85835H16.0701V3.86098C16.4862 3.73745 16.9074 3.62706 17.339 3.52981H17.3416V3.52718L17.1142 2.23143C17.0237 1.70314 17.3726 1.19588 17.8921 1.10126C17.949 1.09075 18.0058 1.08549 18.0601 1.08549C18.2875 1.08549 18.5072 1.16959 18.6752 1.31415C18.7166 1.34832 18.7553 1.38774 18.7915 1.4298C18.8251 1.47185 18.8561 1.51916 18.8871 1.5691C18.913 1.61903 18.9414 1.66897 18.9595 1.72417C18.9776 1.77936 18.9931 1.83718 19.006 1.89501L19.236 3.20916V3.21704C19.4531 3.19339 19.6676 3.16973 19.8847 3.14871C20.0527 3.13294 20.2181 3.12242 20.3887 3.11454C20.4275 3.11191 20.4611 3.10665 20.4998 3.10665C20.5153 3.10403 20.5257 3.10403 20.5412 3.10403V1.81616C20.5412 1.80039 20.5386 1.78462 20.5386 1.76622C20.5386 1.73205 20.5386 1.69788 20.5463 1.66109C20.5463 1.62955 20.5541 1.59538 20.5618 1.56384C20.5644 1.5323 20.5722 1.50339 20.5851 1.47185C20.5929 1.44031 20.6032 1.4114 20.6187 1.38249C20.629 1.34832 20.6497 1.30889 20.6678 1.27473C20.6937 1.22742 20.7247 1.18274 20.7634 1.14068C20.7738 1.12491 20.7815 1.1144 20.7944 1.10652C20.8125 1.08023 20.8358 1.05658 20.8591 1.04081C20.9056 0.993498 20.9547 0.95933 21.0064 0.927791C21.0529 0.896251 21.102 0.872596 21.1511 0.854198C21.2002 0.830544 21.2571 0.814774 21.3113 0.804261C21.3708 0.793747 21.4354 0.785862 21.5052 0.785862C21.5388 0.785862 21.5724 0.788491 21.6034 0.788491C21.6292 0.796376 21.6577 0.799004 21.6835 0.804261H21.699C21.7533 0.814774 21.8101 0.830544 21.8592 0.854198C21.9083 0.872596 21.9574 0.896251 22.004 0.927791C22.0582 0.95933 22.1073 0.993498 22.1513 1.04081C22.1745 1.05658 22.1978 1.08023 22.2159 1.10652C22.2262 1.1144 22.234 1.12491 22.2469 1.14068C22.2857 1.18274 22.3141 1.23005 22.3425 1.27473C22.3606 1.30889 22.3813 1.34832 22.3916 1.38249C22.4071 1.40877 22.4175 1.44031 22.4252 1.47185C22.4356 1.50339 22.4433 1.5323 22.4485 1.56384C22.4562 1.59538 22.464 1.62955 22.464 1.66109C22.4718 1.69526 22.4718 1.72942 22.4718 1.76622C22.4718 1.78987 22.4692 1.80827 22.4692 1.82667V3.1014C22.4847 3.1014 22.495 3.1014 22.5105 3.10403C22.5493 3.10403 22.5829 3.10665 22.6216 3.11191C22.7922 3.1198 22.9602 3.13031 23.1256 3.14608L23.7743 3.21441V3.20653L24.0017 1.89238C24.0121 1.83456 24.0276 1.77673 24.0483 1.72154C24.0664 1.66634 24.0948 1.61641 24.1206 1.56647C24.1775 1.46922 24.2498 1.38512 24.3326 1.31152C24.5005 1.16959 24.7202 1.08286 24.9476 1.08286C25.0045 1.08286 25.0614 1.08549 25.1156 1.09863C25.6377 1.19062 25.9866 1.70051 25.8961 2.2288L25.6687 3.52455V3.53244C26.1003 3.62443 26.5242 3.73745 26.9428 3.86098V3.85835H26.9454L27.3615 2.69138C27.3641 2.67561 27.3641 2.65984 27.3719 2.64144C27.4778 2.34445 27.713 2.13155 27.9895 2.04482C27.9999 2.04482 28.0128 2.04219 28.0231 2.03693C28.1058 2.01328 28.186 2.00277 28.2712 2.00277C28.2842 2.00277 28.2971 2.00014 28.31 2.00277C28.3591 2.00539 28.4082 2.01065 28.4573 2.01854C28.5064 2.02642 28.5555 2.03693 28.6046 2.05796C28.6537 2.07636 28.7003 2.09739 28.7416 2.12367C28.783 2.14732 28.8243 2.17361 28.8631 2.20515L28.8657 2.20777C28.8889 2.22354 28.9122 2.2472 28.9329 2.2656C28.9484 2.27611 28.9587 2.29188 28.9716 2.30765C29.0052 2.34182 29.0362 2.37599 29.0621 2.41541C29.0621 2.41804 29.0621 2.41804 29.0621 2.41804C29.0931 2.46009 29.1164 2.50214 29.1345 2.5442C29.2508 2.77549 29.274 3.05409 29.181 3.31166C29.1784 3.31955 29.1732 3.32217 29.1706 3.33006C29.168 3.33794 29.1629 3.34057 29.1629 3.34846L28.7545 4.4944L28.752 4.49703C28.9613 4.5785 29.1655 4.66787 29.3671 4.7546C29.5609 4.83871 29.7547 4.9307 29.946 5.02531C29.9537 5.02794 29.9615 5.0332 29.9692 5.03583L30.5766 3.96348C30.6231 3.88726 30.6748 3.8163 30.7368 3.75584C30.9177 3.57449 31.1607 3.47462 31.4088 3.47462C31.5302 3.47462 31.6543 3.49827 31.7732 3.54821C31.8145 3.56398 31.8533 3.58238 31.8895 3.60603C32.3443 3.87675 32.5046 4.47337 32.2384 4.93858L31.6543 5.96887V5.9715C32.0342 6.20542 32.4038 6.46037 32.7682 6.7232L32.7708 6.72057L33.4608 5.88477C33.4711 5.869 33.4789 5.85323 33.4918 5.83746C33.6805 5.60617 33.9544 5.4879 34.231 5.4879C34.3421 5.4879 34.4507 5.50629 34.5566 5.54835C34.66 5.58251 34.7582 5.64034 34.8487 5.71919C34.8874 5.75073 34.921 5.78489 34.952 5.82432C34.9624 5.8322 34.9753 5.84797 34.9856 5.85849C34.9882 5.86637 34.9934 5.869 34.996 5.87688C35.0218 5.90842 35.0425 5.93734 35.0606 5.97413C35.0761 6.00041 35.0916 6.02933 35.1019 6.05824V6.06087C35.12 6.09241 35.1329 6.12132 35.1407 6.15286C35.1562 6.18702 35.164 6.22119 35.1665 6.25799C35.1769 6.28164 35.1821 6.30793 35.1821 6.33158C35.1846 6.35524 35.1898 6.37889 35.1846 6.39992C35.2001 6.58915 35.1614 6.77839 35.0632 6.9466C35.0658 6.94923 35.0632 6.94923 35.0632 6.94923C35.0373 6.99917 35.0037 7.04911 34.965 7.09642C34.9572 7.1043 34.9469 7.11219 34.9391 7.1227L34.2801 7.9217L34.2723 7.92959C34.6135 8.22922 34.9495 8.54198 35.2699 8.86526H35.2725L36.053 8.19505C36.2339 8.03998 36.451 7.96638 36.6707 7.96638C36.7741 7.96638 36.8749 7.98215 36.9731 8.01632C37.0713 8.04786 37.1617 8.0978 37.2496 8.16351C37.3065 8.20556 37.3607 8.2555 37.4047 8.31332C37.7432 8.72596 37.689 9.34362 37.2832 9.68529L36.5544 10.3108C36.8464 10.6735 37.1178 11.0468 37.3892 11.4279L37.3918 11.4252L38.1154 11.0021C38.118 10.9994 38.1232 10.9942 38.1257 10.9942C38.1361 10.9837 38.1438 10.9758 38.1567 10.9705C38.2369 10.9232 38.317 10.8891 38.3997 10.8707C38.4798 10.8523 38.5599 10.8391 38.6375 10.8391H38.6478C38.6814 10.8391 38.7202 10.8417 38.7538 10.847C38.7796 10.8496 38.8106 10.8549 38.8365 10.8628C38.8623 10.8654 38.8907 10.8733 38.9166 10.8812C39.0639 10.9285 39.2009 11.0047 39.3146 11.1203C39.3301 11.1309 39.3456 11.1519 39.3611 11.1677C39.3637 11.1755 39.3714 11.1782 39.3714 11.1861C39.4102 11.2281 39.4438 11.278 39.4748 11.328C39.5084 11.3858 39.5317 11.4463 39.5549 11.5093C39.5627 11.5356 39.573 11.5672 39.5808 11.5987C39.5834 11.6302 39.5911 11.6644 39.5963 11.6959C39.5989 11.738 39.5989 11.7801 39.5989 11.8221V11.8773C39.5989 11.8799 39.5989 11.8799 39.5989 11.8852C39.5989 11.8904 39.5989 11.8878 39.5989 11.8931C39.5963 11.9272 39.5911 11.9667 39.5834 12.0008C39.5808 12.0271 39.573 12.0587 39.5653 12.0849C39.5575 12.1165 39.5472 12.1506 39.5317 12.1822C39.5213 12.2216 39.5007 12.2584 39.4774 12.2952C39.3973 12.445 39.2758 12.5764 39.1207 12.6684C39.1052 12.6763 39.0949 12.6789 39.082 12.6842L38.4178 13.0732L38.4152 13.0758C38.6452 13.4884 38.8675 13.909 39.0665 14.34H39.0691V14.3374L39.7694 14.0798C39.8754 14.0404 39.9865 14.022 40.0951 14.022C40.3406 14.022 40.5732 14.1192 40.7515 14.2875C40.8239 14.3479 40.8833 14.4294 40.9324 14.5214C40.9583 14.5634 40.979 14.6107 40.9971 14.6607C41.178 15.1653 40.9221 15.7278 40.4259 15.9144L39.8108 16.143H39.8082C39.8883 16.3717 39.9633 16.5977 40.0356 16.829C40.108 17.0603 40.1752 17.2942 40.2398 17.5308H40.2424L40.7645 17.4335C40.78 17.4309 40.7955 17.4256 40.8136 17.423C40.8704 17.4125 40.9273 17.4072 40.9841 17.4072C41.0151 17.4072 41.0436 17.4072 41.0746 17.4151C41.1056 17.4151 41.1314 17.4178 41.1573 17.4256C41.1961 17.4283 41.2374 17.4414 41.271 17.4572C41.302 17.4598 41.3304 17.473 41.3589 17.4887C41.3899 17.4992 41.4235 17.515 41.4493 17.536C41.563 17.5939 41.6587 17.678 41.7362 17.7831C41.7621 17.8173 41.7905 17.8514 41.8112 17.8909C41.8112 17.8935 41.8112 17.8935 41.8112 17.8935C41.837 17.9355 41.8577 17.9828 41.8758 18.0275C41.899 18.0853 41.9171 18.1511 41.93 18.2168C41.9455 18.3088 41.9481 18.406 41.9378 18.498C41.9352 18.5322 41.9275 18.5716 41.9197 18.6058C41.8964 18.6977 41.8654 18.7871 41.8163 18.8686C41.7698 18.9527 41.7104 19.0315 41.6432 19.0999C41.6122 19.1262 41.5786 19.1551 41.545 19.1814C41.4338 19.2628 41.302 19.3233 41.1547 19.3469C41.1521 19.3496 41.1521 19.3496 41.147 19.3496C41.1392 19.3522 41.1289 19.3522 41.1159 19.3522H41.1056L40.6662 19.4337H40.6585C40.7412 19.9199 40.8136 20.4088 40.8627 20.9029H41.2865C41.5527 20.9029 41.7905 21.0159 41.9636 21.1894C42.1368 21.3655 42.2453 21.6099 42.2453 21.8806C42.2428 22.4037 41.8137 22.84 41.2839 22.84Z" fill="#530AC6"/>
    </g>
    <defs>
        <clipPath id="clip0_99_1346">
            <rect width="43" height="38" fill="white"/>
        </clipPath>
    </defs>
</svg>
